<svg xmlns="http://www.w3.org/2000/svg" width="745.21" height="427.706" viewBox="0 0 745.21 427.706">
  <g id="undraw_at_home_octe_copie" data-name="undraw_at_home_octe copie" transform="translate(-54.04)">
    <ellipse id="Ellipse_1" data-name="Ellipse 1" cx="29.099" cy="59.374" rx="29.099" ry="59.374" transform="translate(151.773 269.291)" fill="#e6e6e6"/>
    <path id="Tracé_1" data-name="Tracé 1" d="M363.309,662c-11.655-69.925-.117-139.6,0-140.293l2.267.384c-.117.692-11.588,70,0,139.532Z" transform="translate(-179.75 -236.147)" fill="#3f3d56"/>
    <rect id="Rectangle_1" data-name="Rectangle 1" width="29.841" height="2.3" transform="translate(180.175 329.971) rotate(-28.142)" fill="#3f3d56"/>
    <rect id="Rectangle_2" data-name="Rectangle 2" width="2.3" height="29.842" transform="translate(152.404 324.973) rotate(-61.842)" fill="#3f3d56"/>
    <path id="Tracé_7" data-name="Tracé 7" d="M0,0H47.694V165.095H0Z" transform="translate(720.059 3.963)" fill="#b4daff"/>
    <path id="Tracé_2" data-name="Tracé 2" d="M799.25,138,683.25,0,450.4,2.129,309.156,139.707l2.854,1.835h-1.019V427.706H798.937V141.542Z" fill="#b4daff"/>
    <path id="Tracé_3" data-name="Tracé 3" d="M683.371.294l-144.916,169.9V427.706H798.937V137.873Z" fill="#033c72"/>
    <rect id="Rectangle_4" data-name="Rectangle 4" width="53.197" height="47.02" transform="translate(653.015 295.298)" fill="#3f3d56"/>
    <rect id="Rectangle_5" data-name="Rectangle 5" width="53.197" height="46.275" transform="translate(653.015 213.911)" fill="#3f3d56"/>
    <rect id="Rectangle_6" data-name="Rectangle 6" width="53.197" height="47.02" transform="translate(653.015 295.298)" fill="#fff"/>
    <rect id="Rectangle_7" data-name="Rectangle 7" width="53.197" height="46.275" transform="translate(653.015 213.911)" fill="#fff"/>
    <path id="Tracé_4" data-name="Tracé 4" d="M682.079,655.462s1.14-23.9,24.519-21.118" transform="translate(-179.75 -236.147)" fill="#033c72"/>
    <circle id="Ellipse_2" data-name="Ellipse 2" cx="11.701" cy="11.701" r="11.701" transform="translate(484.023 373.173)" fill="#033c72"/>
    <rect id="Rectangle_8" data-name="Rectangle 8" width="3.303" height="23.12" transform="translate(493.82 404.578)" fill="#033c72"/>
    <ellipse id="Ellipse_3" data-name="Ellipse 3" cx="56.915" cy="116.129" rx="56.915" ry="116.129" transform="translate(54.04 120.967)" fill="#033c72"/>
    <path id="Tracé_5" data-name="Tracé 5" d="M297.045,663.148c-22.765-136.585-.23-272.673,0-274.032l2.267.384c-.23,1.355-22.7,137.077,0,273.27Z" transform="translate(-179.75 -236.147)" fill="#b7b5c6"/>
    <rect id="Rectangle_9" data-name="Rectangle 9" width="58.368" height="2.3" transform="translate(110.112 240.621) rotate(-28.142)" fill="#b7b5c6"/>
    <rect id="Rectangle_10" data-name="Rectangle 10" width="2.3" height="58.368" transform="translate(55.796 228.915) rotate(-61.842)" fill="#b7b5c6"/>
    <path id="Tracé_8" data-name="Tracé 8" d="M616.642,78.744,683.25,0,450.4,2.129l-91.3,88.924L275.73,170.761l262.13.08Z" fill="#3d83c7"/>
    <ellipse id="Ellipse_4" data-name="Ellipse 4" cx="77.883" cy="158.914" rx="77.883" ry="158.914" transform="translate(167.87 8.287)" fill="#033c72"/>
    <path id="Tracé_6" data-name="Tracé 6" d="M434.6,663.148c-31.14-186.837-.314-372.992,0-374.851l2.267.384c-.314,1.855-31.074,187.644,0,374.089Z" transform="translate(-179.75 -236.147)" fill="#b7b5c6"/>
    <rect id="Rectangle_11" data-name="Rectangle 11" width="79.871" height="2.3" transform="translate(244.801 172.399) rotate(-28.142)" fill="#b7b5c6"/>
    <rect id="Rectangle_12" data-name="Rectangle 12" width="2.3" height="79.871" transform="matrix(0.472, -0.882, 0.882, 0.472, 170.472, 155.626)" fill="#b7b5c6"/>
    <rect id="Rectangle_14" data-name="Rectangle 14" width="53.197" height="47.02" transform="translate(396.602 294.821)" fill="#3f3d56"/>
    <rect id="Rectangle_15" data-name="Rectangle 15" width="53.197" height="46.275" transform="translate(396.602 213.434)" fill="#3f3d56"/>
    <rect id="Rectangle_16" data-name="Rectangle 16" width="53.197" height="47.02" transform="translate(396.602 294.821)" fill="#fff" stroke="#3d83c7" stroke-width="2"/>
    <rect id="Rectangle_17" data-name="Rectangle 17" width="53.197" height="46.275" transform="translate(396.602 213.434)" fill="#fff" stroke="#3d83c7" stroke-width="2"/>
  </g>
</svg>
